<svg width="1299" height="1300" xmlns="http://www.w3.org/2000/svg" xmlns:xlink="http://www.w3.org/1999/xlink" xml:space="preserve" overflow="hidden"><g transform="translate(-858 -713)"><path d="M1347.3 981 1347.3 1050.47 1821.19 1050.47 1821.19 1090.51C1821.19 1201.78 1690.82 1313.25 1507.02 1314.03 1338.1 1313.25 1218.69 1229.26 1200.49 1119.94L1177 1119.94C1177.98 1135.84 1179.74 1151.54 1183.26 1166.85 1208.91 1279.69 1299.93 1388.41 1507.61 1389 1715.29 1388.61 1806.31 1279.89 1831.95 1166.85 1837.04 1144.08 1839 1120.53 1839 1097.18L1839 981 1347.3 981Z" fill="#FF8555" fill-rule="evenodd"/><path d="M1804 774 1804 843.545 1233.72 843.545C1238.43 910.143 1252.74 981.454 1277.44 1051L1210 1051 1210 774 1804 774Z" fill="#FF8555" fill-rule="evenodd"/><path d="M1487 1726.41 1493.64 1951 1522.75 1951 1529 1699C1514.93 1708.79 1500.87 1717.99 1487 1726.22" fill="#FF8555" fill-rule="evenodd"/><path d="M1528.41 1625.83C1528.41 1625.83 1529.96 1624.65 1530.74 1623.86L1535 1447 1479 1447 1485.2 1659C1499.93 1648.2 1514.46 1637.01 1528.22 1625.63" fill="#FF8555" fill-rule="evenodd"/><path d="M1795.05 1395C1812.27 1384.77 1837.33 1395 1838.89 1416.25 1840.07 1431.79 1831.65 1443.99 1812.86 1448.12 1778.02 1455.6 1743.96 1450.48 1687 1408.97L1687 1404.05C1758.44 1432.58 1774.89 1407 1794.85 1395" fill="#FF8555" fill-rule="evenodd"/><path d="M1295.75 1756.48C1336.49 1795.32 1443.64 1727.4 1528.85 1659.28 1599.56 1603.26 1688.3 1552.32 1739.23 1602.48 1760.97 1624.14 1769 1654.79 1769 1686.21 1769 1727.98 1749.41 1766.24 1712.98 1793.18L1675.17 1751.99C1733.35 1723.69 1768.41 1663.77 1739.23 1631.76 1712.98 1603.26 1652.65 1642.88 1575.47 1700.46 1465.58 1781.85 1357.06 1848.41 1276.94 1776 1220.92 1725.25 1241.29 1609.31 1316.9 1557L1362.15 1607.16C1277.73 1648.35 1247.17 1710.22 1295.94 1756.68" fill="#FF8555" fill-rule="evenodd"/></g></svg>