<svg width="246" height="64" viewBox="0 0 246 64" fill="none" xmlns="http://www.w3.org/2000/svg">
<g clip-path="url(#clip0_256_9887)">
<path d="M9.2661 11.248V15.0184H35.0514V17.1911C35.0514 23.2301 27.9581 29.2797 17.9571 29.3223C8.76552 29.2797 2.2686 24.7212 1.27808 18.7887H0C0.0532534 19.6514 0.14911 20.5035 0.340822 21.3343C1.73606 27.4584 6.68863 33.3589 17.989 33.3908C29.2894 33.3695 34.242 27.469 35.6372 21.3343C35.9141 20.0988 36.0206 18.8207 36.0206 17.5533V11.248H9.2661Z" fill="#FF8555"/>
<path d="M34.1144 0V3.77034H3.13151C3.38712 7.38093 4.16462 11.2471 5.50661 15.0175H1.84277V0H34.1144Z" fill="#FF8555"/>
<path d="M16.8921 51.7841L17.2542 64.0004H18.8412L19.182 50.293C18.4151 50.8255 17.6483 51.3261 16.8921 51.7734" fill="#FF8555"/>
<path d="M19.15 46.2887C19.15 46.2887 19.2352 46.2248 19.2778 46.1822L19.5121 36.5859H16.4341L16.7749 48.0887C17.5844 47.5029 18.3832 46.8958 19.1394 46.2781" fill="#FF8555"/>
<path d="M33.635 33.7516C34.5723 33.1978 35.9356 33.7516 36.0208 34.9019C36.0847 35.7433 35.6267 36.4036 34.6043 36.6273C32.7084 37.032 30.8552 36.7551 27.7559 34.5078V34.2415C31.6434 35.7859 32.538 34.4013 33.6244 33.7516" fill="#FF8555"/>
<path d="M6.48639 53.4124C8.70174 55.5318 14.5277 51.8254 19.1607 48.1083C23.0056 45.0516 27.8304 42.2717 30.5996 45.009C31.7818 46.1912 32.2185 47.8633 32.2185 49.5781C32.2185 51.8573 31.1534 53.9449 29.1724 55.4147L27.1168 53.1674C30.28 51.623 32.1865 48.3533 30.5996 46.6066C29.1724 45.0516 25.892 47.2136 21.6956 50.3556C15.7205 54.7969 9.82006 58.4288 5.46393 54.4774C2.41783 51.7082 3.5255 45.3817 7.63667 42.5273L10.097 45.2646C5.50653 47.5119 3.84502 50.8881 6.49704 53.423" fill="#FF8555"/>
<path d="M169.761 40.5357C173.947 40.0777 176.876 34.9547 175.651 24.7194C174.522 14.9314 170.421 10.1812 166.183 10.6818C161.752 11.0972 158.983 16.6249 160.154 26.4555C161.379 36.6908 165.288 41.0363 169.761 40.5357ZM156.395 25.6354C156.395 14.9847 161.571 9.22266 167.929 9.22266C174.288 9.22266 179.464 14.9847 179.464 25.6354C179.464 36.8399 174.288 42.1333 167.929 42.1333C161.571 42.1333 156.395 36.8292 156.395 25.6354Z" fill="#FF8555"/>
<path d="M187.228 9.68164L199.935 36.6066L198.38 9.68164H201.532L201.351 41.6763H198.241L185.578 15.2626L187.133 41.6763H183.98L184.161 9.68164H187.228Z" fill="#FF8555"/>
<path d="M213.727 32.357C215.091 32.4954 216.411 32.6765 217.775 32.8149C219.66 33.0386 220.981 32.996 220.416 31.3558L215.378 13.9845L211.139 32.9534C211.661 32.4954 212.46 32.2185 213.727 32.357ZM227.051 41.6763H223.43L221.023 33.4966C220.597 33.8587 219.66 34.093 217.913 33.912C216.55 33.7735 215.229 33.5924 213.866 33.454C211.885 33.2303 211.044 33.8161 210.564 35.5522L209.201 41.6763H206.048L215.133 9.68164H217.626L227.041 41.6763H227.051Z" fill="#FF8555"/>
<path d="M242.229 39.0778C244.679 36.5217 240.397 29.8011 236.105 24.4544C232.569 20.0237 229.374 14.4428 232.526 11.2476C233.889 9.87363 235.828 9.37305 237.798 9.37305C240.44 9.37305 242.836 10.6085 244.529 12.8878L241.941 15.2629C240.152 11.6097 236.382 9.41565 234.358 11.2369C232.569 12.8878 235.061 16.6794 238.693 21.5255C243.827 28.4271 248.012 35.2436 243.454 40.2707C240.248 43.7854 232.952 42.5073 229.661 37.7571L232.814 34.9241C235.402 40.2281 239.311 42.1452 242.229 39.0778Z" fill="#FF8555"/>
<path d="M189.348 4.88777C188.272 4.90907 187.26 5.36705 186.355 6.14455C186.898 4.09962 188.336 2.73633 189.955 2.73633C192.458 2.73633 194.141 4.02506 195.866 4.02506C198.316 4.02506 199.157 2.91739 199.157 2.91739C199.157 2.91739 197.826 6.08065 195.823 6.22975C193.885 6.36821 191.872 4.83451 189.348 4.88777Z" fill="#FF8555"/>
<path d="M148.652 25.6992C148.609 34.5712 143.827 40.6208 137.884 40.6208H135.956V10.5326H137.884C143.241 10.5326 148.609 16.8272 148.652 25.6992ZM152.262 25.6779C152.241 15.645 147.001 11.2569 141.569 10.0107C140.472 9.75513 139.343 9.66992 138.214 9.66992H132.612V41.6646H138.214C139.343 41.6646 140.472 41.5794 141.569 41.3238C147.012 40.0883 152.241 35.6896 152.262 25.6566" fill="#FF8555"/>
<path d="M57.1836 9.68164H60.5279V40.5367C63.7338 40.313 67.1633 39.6207 70.5076 38.4385V41.687H57.1836V9.68164Z" fill="#FF8555"/>
<path d="M111.396 39.0778C113.846 36.5217 109.564 29.8011 105.272 24.4544C101.736 20.0237 98.5405 14.4428 101.693 11.2476C103.056 9.87363 104.995 9.37305 106.965 9.37305C109.607 9.37305 112.003 10.6085 113.696 12.8878L111.108 15.2629C109.319 11.6097 105.549 9.41565 103.525 11.2369C101.736 12.8878 104.228 16.6794 107.86 21.5255C112.993 28.4271 117.179 35.2436 112.61 40.2707C109.404 43.7854 102.108 42.5073 98.8174 37.7571L101.97 34.9241C104.558 40.2281 108.467 42.1452 111.385 39.0778" fill="#FF8555"/>
<path d="M88.6033 28.7251C87.2826 27.4363 85.3761 26.7547 82.9584 26.3074C82.5857 26.2328 82.2022 26.1796 81.8295 26.137L84.5347 13.9739L88.9441 29.1298C88.827 28.9913 88.7205 28.8529 88.6033 28.7251ZM96.2185 41.6763L86.8033 9.68164H84.3111L79.6887 25.9559C79.5076 25.9559 79.3905 25.9452 79.3905 25.9452C76.7065 25.8494 74.0225 25.9878 71.8604 25.5831C68.8889 24.9867 67.2487 24.1666 66.0238 22.9737L65.5978 25.1251C65.2676 26.7227 67.2487 27.5002 70.4013 28.0008C73.458 28.5014 76.0035 28.0434 78.7301 27.905C78.7301 27.905 78.8792 27.905 79.1348 27.905L75.226 41.687H78.3786L81.4354 27.9795C82.0851 28.0328 82.7774 28.1073 83.4484 28.2351C87.5382 29.0233 89.5938 31.3238 90.2861 33.6989L92.608 41.687H96.2292L96.2185 41.6763Z" fill="#FF8555"/>
<path d="M76.4081 51.9762H78.9004L77.6223 48.6852L76.4081 51.9762ZM79.7737 54.2235L79.0175 52.2745H76.3016L75.5774 54.2235H75.2046L77.5477 47.9609H78.4956L80.9453 54.2235H79.7631H79.7737Z" fill="#FF8555"/>
<path d="M85.7381 48.2592V51.0177H86.6008C87.1547 51.0177 87.5488 50.8899 87.8044 50.6343C88.06 50.3786 88.1771 50.0485 88.1771 49.6331C88.1771 49.2177 88.0493 48.8875 87.7937 48.6426C87.5381 48.3976 87.144 48.2698 86.6115 48.2698H85.7381V48.2592ZM86.6115 51.3053H85.7381V54.2235H84.6411V47.9609H86.6221C87.5061 47.9609 88.1878 48.0994 88.6458 48.3763C89.1038 48.6532 89.3381 49.0686 89.3381 49.6118C89.3381 49.8355 89.2955 50.0378 89.1996 50.2189C89.1038 50.3999 88.9759 50.5491 88.8162 50.6769C88.6564 50.8047 88.4541 50.9112 88.2304 50.9857C88.0067 51.0603 87.7618 51.1135 87.4955 51.1348V51.1561C87.9109 51.1987 88.2623 51.3159 88.5499 51.5183C88.8375 51.7206 89.0398 52.0508 89.157 52.5194L89.5617 54.2235H88.4221L88.0067 52.4236C87.9002 51.9656 87.7298 51.6674 87.5062 51.5183C87.2825 51.3798 86.9843 51.3053 86.6115 51.3053Z" fill="#FF8555"/>
<path d="M94.7483 54.2235V48.2592H92.6182V47.9609H97.9861V48.2592H95.856V54.2235H94.7483Z" fill="#FF8555"/>
<path d="M106.038 53.9253V54.2235H101.661V47.9609H105.974V48.2592H102.768V50.8579H105.729V51.1455H102.768V53.9253H106.038Z" fill="#FF8555"/>
<path d="M111.79 54.3183C111.076 54.3183 110.48 54.1585 110.022 53.8284C109.553 53.5089 109.297 53.0189 109.233 52.3799H110.235C110.256 52.9018 110.405 53.3065 110.671 53.5941C110.938 53.8816 111.31 54.0307 111.79 54.0307C112.216 54.0307 112.578 53.9242 112.876 53.7219C113.174 53.5088 113.323 53.2213 113.323 52.8485C113.323 52.529 113.206 52.2734 112.961 52.0923C112.716 51.9112 112.375 51.7515 111.917 51.6343L111.225 51.4426C110.661 51.2935 110.235 51.0911 109.947 50.8355C109.649 50.5799 109.5 50.2071 109.5 49.7279C109.5 49.4403 109.564 49.1847 109.681 48.9504C109.798 48.716 109.968 48.5137 110.181 48.3539C110.394 48.1835 110.639 48.0557 110.916 47.9705C111.193 47.8853 111.491 47.832 111.811 47.832C112.45 47.832 112.982 47.9811 113.398 48.2794C113.824 48.5776 114.069 48.993 114.133 49.5361H113.164C113.132 49.0995 113.004 48.748 112.769 48.4924C112.535 48.2368 112.216 48.1089 111.8 48.1089C111.385 48.1089 111.044 48.2155 110.778 48.4391C110.501 48.6628 110.373 48.9397 110.373 49.2805C110.373 49.5787 110.469 49.8131 110.671 49.9728C110.863 50.1432 111.172 50.2817 111.587 50.3882L112.365 50.5906C112.929 50.7397 113.377 50.9527 113.717 51.2083C114.058 51.4746 114.229 51.8686 114.229 52.3799C114.229 52.6994 114.165 52.987 114.026 53.2213C113.888 53.4662 113.707 53.6686 113.483 53.8177C113.259 53.9775 113.004 54.0946 112.706 54.1692C112.407 54.2437 112.109 54.2864 111.79 54.2864" fill="#FF8555"/>
<path d="M118.649 51.9762H121.141L119.863 48.6852L118.649 51.9762ZM122.014 54.2235L121.258 52.2745H118.542L117.818 54.2235H117.445L119.788 47.9609H120.736L123.186 54.2235H122.004H122.014Z" fill="#FF8555"/>
<path d="M131.11 54.2235L127.201 48.387V54.2235H126.86V47.9609H128.224L131.557 52.9455V47.9609H131.898V54.2235H131.11Z" fill="#FF8555"/>
<path d="M136.734 51.9762H139.226L137.948 48.6852L136.734 51.9762ZM140.099 54.2235L139.343 52.2745H136.627L135.903 54.2235H135.53L137.873 47.9609H138.821L141.271 54.2235H140.089H140.099Z" fill="#FF8555"/>
<path d="M147.001 54.3183C146.287 54.3183 145.691 54.1585 145.233 53.8284C144.764 53.5089 144.509 53.0189 144.445 52.3799H145.446C145.467 52.9018 145.616 53.3065 145.883 53.5941C146.149 53.8816 146.522 54.0307 147.001 54.0307C147.427 54.0307 147.789 53.9242 148.087 53.7219C148.386 53.5088 148.535 53.2213 148.535 52.8485C148.535 52.529 148.418 52.2734 148.173 52.0923C147.928 51.9112 147.587 51.7515 147.129 51.6343L146.437 51.4426C145.872 51.2935 145.446 51.0911 145.158 50.8355C144.86 50.5799 144.711 50.2071 144.711 49.7279C144.711 49.4403 144.775 49.1847 144.892 48.9504C145.009 48.716 145.18 48.5137 145.393 48.3539C145.606 48.1835 145.851 48.0557 146.128 47.9705C146.405 47.8853 146.703 47.832 147.022 47.832C147.661 47.832 148.194 47.9811 148.609 48.2794C149.035 48.5776 149.28 48.993 149.344 49.5361H148.375C148.343 49.0995 148.215 48.748 147.981 48.4924C147.747 48.2368 147.427 48.1089 147.012 48.1089C146.596 48.1089 146.255 48.2155 145.989 48.4391C145.723 48.6628 145.584 48.9397 145.584 49.2805C145.584 49.5787 145.68 49.8131 145.883 49.9728C146.074 50.1432 146.383 50.2817 146.799 50.3882L147.576 50.5906C148.141 50.7397 148.588 50.9527 148.929 51.2083C149.27 51.4746 149.44 51.8686 149.44 52.3799C149.44 52.6994 149.376 52.987 149.238 53.2213C149.099 53.4662 148.918 53.6686 148.694 53.8177C148.471 53.9775 148.215 54.0946 147.917 54.1692C147.619 54.2437 147.321 54.2864 147.001 54.2864" fill="#FF8555"/>
<path d="M162.359 51.2414H159.814V54.2235H158.717V47.9609H162.626V48.2592H159.814V50.9538H162.359V51.2414Z" fill="#FF8555"/>
<path d="M166.342 54.2235V47.9609H167.439V53.9253H170.304V54.2235H166.342Z" fill="#FF8555"/>
<path d="M176.311 54.0297C176.94 54.0297 177.43 53.774 177.76 53.2522C178.09 52.7303 178.26 51.9954 178.26 51.0475C178.26 50.0996 178.09 49.3647 177.749 48.8641C177.408 48.3635 176.929 48.1079 176.301 48.1079C175.672 48.1079 175.182 48.3635 174.842 48.8641C174.511 49.3647 174.341 50.0996 174.341 51.0475C174.341 51.9954 174.511 52.7303 174.842 53.2522C175.172 53.774 175.662 54.0297 176.29 54.0297M176.29 54.3066C175.853 54.3066 175.438 54.232 175.055 54.0829C174.671 53.9338 174.33 53.7101 174.053 53.4332C173.766 53.1563 173.542 52.8048 173.372 52.4108C173.201 52.006 173.116 51.5481 173.116 51.0475C173.116 50.5469 173.201 50.0889 173.372 49.6842C173.542 49.2795 173.777 48.9493 174.064 48.6724C174.352 48.3954 174.693 48.1931 175.076 48.044C175.459 47.8949 175.864 47.8203 176.279 47.8203C176.695 47.8203 177.1 47.8949 177.483 48.044C177.866 48.1931 178.197 48.3954 178.495 48.6724C178.782 48.9493 179.017 49.2795 179.187 49.6842C179.358 50.0889 179.443 50.5362 179.443 51.0475C179.443 51.5587 179.358 51.9954 179.187 52.4001C179.017 52.8048 178.793 53.1457 178.505 53.4332C178.218 53.7101 177.888 53.9338 177.504 54.0829C177.121 54.2427 176.705 54.3172 176.279 54.3172" fill="#FF8555"/>
<path d="M184.587 48.2592V51.0177H185.45C186.004 51.0177 186.398 50.8899 186.643 50.6343C186.898 50.3786 187.016 50.0485 187.016 49.6331C187.016 49.2177 186.888 48.8875 186.632 48.6426C186.377 48.3976 185.982 48.2698 185.45 48.2698H184.577L184.587 48.2592ZM185.461 51.3053H184.587V54.2235H183.49V47.9609H185.471C186.355 47.9609 187.037 48.0994 187.495 48.3763C187.953 48.6532 188.187 49.0686 188.187 49.6118C188.187 49.8355 188.145 50.0378 188.049 50.2189C187.953 50.3999 187.825 50.5491 187.665 50.6769C187.506 50.8047 187.303 50.9112 187.08 50.9857C186.856 51.0603 186.611 51.1135 186.345 51.1348V51.1561C186.76 51.1987 187.111 51.3159 187.399 51.5183C187.687 51.7206 187.889 52.0508 188.006 52.5194L188.411 54.2235H187.271L186.856 52.4236C186.749 51.9656 186.579 51.6674 186.355 51.5183C186.132 51.3798 185.833 51.3053 185.461 51.3053Z" fill="#FF8555"/>
<path d="M193.449 47.9609H192.352V54.2235H193.449V47.9609Z" fill="#FF8555"/>
<path d="M199.935 54.3183C199.221 54.3183 198.625 54.1585 198.167 53.8284C197.698 53.5089 197.443 53.0189 197.379 52.3799H198.38C198.401 52.9018 198.55 53.3065 198.817 53.5941C199.083 53.8816 199.456 54.0307 199.935 54.0307C200.361 54.0307 200.723 53.9242 201.021 53.7219C201.32 53.5088 201.469 53.2213 201.469 52.8485C201.469 52.529 201.352 52.2734 201.107 52.0923C200.862 51.9112 200.521 51.7515 200.063 51.6343L199.371 51.4426C198.806 51.2935 198.38 51.0911 198.093 50.8355C197.794 50.5799 197.645 50.2071 197.645 49.7279C197.645 49.4403 197.709 49.1847 197.826 48.9504C197.943 48.716 198.114 48.5137 198.327 48.3539C198.54 48.1835 198.785 48.0557 199.062 47.9705C199.339 47.8853 199.637 47.832 199.956 47.832C200.595 47.832 201.128 47.9811 201.543 48.2794C201.969 48.5776 202.214 48.993 202.278 49.5361H201.309C201.277 49.0995 201.149 48.748 200.915 48.4924C200.681 48.2368 200.361 48.1089 199.946 48.1089C199.53 48.1089 199.19 48.2155 198.923 48.4391C198.646 48.6628 198.519 48.9397 198.519 49.2805C198.519 49.5787 198.614 49.8131 198.817 49.9728C199.008 50.1432 199.317 50.2817 199.733 50.3882L200.51 50.5906C201.075 50.7397 201.522 50.9527 201.863 51.2083C202.204 51.4746 202.374 51.8686 202.374 52.3799C202.374 52.6994 202.31 52.987 202.172 53.2213C202.033 53.4662 201.852 53.6686 201.629 53.8177C201.405 53.9775 201.149 54.0946 200.851 54.1692C200.553 54.2437 200.255 54.2864 199.935 54.2864" fill="#FF8555"/>
<path d="M224.556 54.3183C223.843 54.3183 223.246 54.1585 222.788 53.8284C222.32 53.5089 222.064 53.0189 222 52.3799H223.001C223.022 52.9018 223.172 53.3065 223.438 53.5941C223.704 53.8816 224.077 54.0307 224.556 54.0307C224.982 54.0307 225.344 53.9242 225.643 53.7219C225.941 53.5088 226.09 53.2213 226.09 52.8485C226.09 52.529 225.973 52.2734 225.728 52.0923C225.483 51.9112 225.142 51.7515 224.684 51.6343L223.992 51.4426C223.427 51.2935 223.001 51.0911 222.714 50.8355C222.415 50.5799 222.266 50.2071 222.266 49.7279C222.266 49.4403 222.33 49.1847 222.447 48.9504C222.564 48.716 222.735 48.5137 222.948 48.3539C223.161 48.1835 223.406 48.0557 223.683 47.9705C223.96 47.8853 224.258 47.832 224.577 47.832C225.217 47.832 225.749 47.9811 226.164 48.2794C226.59 48.5776 226.835 48.993 226.899 49.5361H225.93C225.898 49.0995 225.77 48.748 225.536 48.4924C225.302 48.2368 224.982 48.1089 224.567 48.1089C224.151 48.1089 223.811 48.2155 223.544 48.4391C223.267 48.6628 223.14 48.9397 223.14 49.2805C223.14 49.5787 223.235 49.8131 223.438 49.9728C223.63 50.1432 223.938 50.2817 224.354 50.3882L225.131 50.5906C225.696 50.7397 226.143 50.9527 226.484 51.2083C226.825 51.4746 226.995 51.8686 226.995 52.3799C226.995 52.6994 226.931 52.987 226.793 53.2213C226.654 53.4662 226.473 53.6686 226.25 53.8177C226.026 53.9775 225.77 54.0946 225.472 54.1692C225.174 54.2437 224.876 54.2864 224.556 54.2864" fill="#FF8555"/>
<path d="M207.667 54.2235V48.2592H205.537V47.9609H210.905V48.2592H208.775V54.2235H207.667Z" fill="#FF8555"/>
<path d="M214.345 51.9762H216.837L215.559 48.6852L214.345 51.9762ZM217.711 54.2235L216.955 52.2745H214.239L213.514 54.2235H213.142L215.485 47.9609H216.433L218.882 54.2235H217.7H217.711Z" fill="#FF8555"/>
</g>
<defs>
<clipPath id="clip0_256_9887">
<rect width="245.413" height="64" fill="white"/>
</clipPath>
</defs>
</svg>
