<svg width="227" height="199" viewBox="0 0 227 199" fill="none" xmlns="http://www.w3.org/2000/svg">
  <path d="M124.661 12.5906C124.661 12.5906 105.912 54.6721 56.3292 45.032C6.74666 35.3918 -23.1267 103.214 23.7494 127.943C70.6254 152.673 38.1391 181.081 69.4023 195.592C104.935 212.084 118.185 156.936 144.363 162.059C202.137 173.363 237.875 153.976 222.072 127.886C194.333 82.0881 174.192 83.7742 182.377 54.1993C190.562 24.6244 144.339 -20.778 124.661 12.5906Z" fill="#D9F3E6" />
  <path d="M115.612 108.637C111.256 116.987 110.156 121.424 96.9412 129.709C96.8385 129.776 96.7616 129.876 96.7229 129.992C94.6116 136.537 91.0376 142.516 86.272 147.475C86.2078 147.541 86.1627 147.623 86.1414 147.713C86.12 147.802 86.1233 147.896 86.1508 147.984C87.6299 152.906 89.2308 161.781 84.7767 169.056C78.2297 179.766 73.3807 173.299 74.3905 170.874C75.2553 168.797 82.643 164.335 80.9375 153.189C80.9231 153.1 80.8861 153.016 80.8299 152.945C80.7737 152.875 80.7002 152.82 80.6166 152.786C80.533 152.751 80.442 152.739 80.3523 152.751C80.2627 152.762 80.1775 152.796 80.1049 152.85C74.7501 156.736 68.6042 159.394 62.1048 160.634C62.0327 160.646 61.9638 160.673 61.9029 160.713C61.842 160.754 61.7903 160.806 61.7513 160.868C61.7124 160.93 61.687 161 61.6768 161.072C61.6667 161.145 61.672 161.218 61.6925 161.289C63.3496 167.221 64.1336 176.493 57.2148 185.019C53.521 189.465 48.6228 182.966 53.521 178.537C56.56 175.797 56.3256 167.917 54.9031 161.847C54.8759 161.729 54.8087 161.624 54.7128 161.55C54.617 161.477 54.4985 161.439 54.3777 161.443C54.0949 161.451 53.8037 161.451 53.521 161.451C43.5236 161.465 33.8039 158.162 25.8863 152.058C25.8138 152.001 25.7279 151.964 25.637 151.951C25.546 151.938 25.4532 151.948 25.3675 151.982C25.2819 152.015 25.2065 152.07 25.1486 152.142C25.0908 152.213 25.0525 152.298 25.0376 152.389C23.1381 164.933 30.6796 169.274 31.7542 172.491C32.9505 176.088 30.2023 179.288 26.8157 178.383C26.7423 178.361 26.6737 178.325 26.6137 178.278C15.5727 169.985 16.5345 152.607 17.7469 144.242C17.758 144.173 17.7544 144.103 17.7363 144.036C17.7181 143.969 17.6859 143.907 17.6418 143.854C11.4675 135.908 8.1248 126.128 8.14462 116.065C8.14462 97.6126 19.1614 81.73 34.9793 74.6415C34.9803 74.6416 34.9814 74.6414 34.9824 74.641C34.9834 74.6406 34.9843 74.64 34.985 74.6393C34.9858 74.6385 34.9864 74.6376 34.9868 74.6367C34.9872 74.6357 34.9874 74.6346 34.9874 74.6336C37.4202 71.5536 40.3866 67.1975 40.8394 64.1422C40.8543 64.0387 40.8997 63.942 40.9699 63.8645C41.0401 63.7869 41.1318 63.732 41.2333 63.7069C41.3348 63.6817 41.4415 63.6874 41.5397 63.7231C41.638 63.7589 41.7234 63.8232 41.7849 63.9077C42.9489 65.4757 44.7514 68.4664 44.3553 71.6187C44.3391 71.7237 44.3311 71.8287 44.3149 71.9338C44.2825 72.1117 44.2422 72.2814 44.2018 72.4592C44.1613 72.5967 44.129 72.734 44.0805 72.8715C44.6458 72.3998 45.1852 71.8979 45.6963 71.368C46.8843 70.1477 48.3878 68.3128 49.0344 66.3488C49.065 66.244 49.1273 66.1513 49.2128 66.0833C49.2982 66.0154 49.4026 65.9757 49.5116 65.9695C49.6206 65.9634 49.7288 65.9912 49.8214 66.0491C49.9139 66.1069 49.9862 66.1921 50.0284 66.2928C50.4484 67.3274 50.9418 68.7741 51.1115 70.2532C51.1261 70.3859 51.1897 70.5083 51.2899 70.5965C51.3901 70.6847 51.5195 70.7323 51.653 70.7301C52.2754 70.7059 52.8977 70.6898 53.5202 70.6898C78.5845 70.6898 98.9045 91.0096 98.9045 116.066C98.9045 116.64 98.8964 117.206 98.872 117.771C98.8685 117.858 98.886 117.944 98.9232 118.022C98.9603 118.1 99.0159 118.168 99.0852 118.219C99.1544 118.271 99.2352 118.305 99.3206 118.319C99.406 118.332 99.4934 118.325 99.5753 118.297C102.275 117.351 105.678 115.072 107.731 109.648C111.57 99.5449 111.974 96.716 110.762 88.8353C109.549 80.9546 115.41 81.3593 116.622 83.9857C117.833 86.6121 120.461 99.3423 115.612 108.637Z" fill="#336234" />
  <path d="M35.7948 120.045C35.6402 120.045 35.49 119.994 35.3677 119.9C35.2454 119.805 35.1577 119.673 35.1185 119.523C34.8137 118.192 34.7482 116.817 34.9251 115.463C35.3231 112.52 36.9247 110.357 39.5569 109.207C41.2769 108.456 42.9029 108.412 44.3894 109.079C47.4362 110.444 48.7333 114.316 48.7871 114.48C48.8392 114.655 48.821 114.843 48.7364 115.005C48.6518 115.167 48.5074 115.289 48.3341 115.346C48.1607 115.402 47.9721 115.389 47.8083 115.309C47.6445 115.229 47.5185 115.088 47.4571 114.916C47.446 114.882 46.2923 111.462 43.8126 110.354C42.7024 109.858 41.4593 109.904 40.1177 110.49C37.9397 111.442 36.6615 113.164 36.3188 115.609C36.1622 116.796 36.2146 118.001 36.4737 119.169C36.5203 119.349 36.4937 119.54 36.3997 119.7C36.3057 119.86 36.1521 119.977 35.9725 120.023C35.9144 120.038 35.8547 120.046 35.7948 120.045Z" fill="white" />
  <path d="M56.898 113.635C56.7513 113.635 56.6084 113.589 56.4894 113.504C56.3704 113.418 56.2813 113.297 56.2347 113.158C55.844 111.855 55.6894 110.493 55.7783 109.135C55.9848 106.185 57.443 103.931 59.9954 102.617C61.6664 101.758 63.2884 101.61 64.8174 102.179C67.9394 103.341 69.4825 107.096 69.5466 107.256C69.6139 107.427 69.6107 107.619 69.5376 107.788C69.4645 107.958 69.3276 108.091 69.1564 108.16C68.9853 108.229 68.7939 108.228 68.6238 108.156C68.4537 108.085 68.3187 107.949 68.2481 107.779C68.2341 107.746 66.865 104.432 64.3237 103.49C63.1808 103.066 61.9404 103.191 60.6361 103.863C58.5248 104.949 57.3614 106.741 57.1781 109.191C57.099 110.379 57.2293 111.572 57.563 112.715C57.5977 112.82 57.607 112.932 57.5901 113.042C57.5732 113.151 57.5305 113.255 57.4656 113.345C57.4008 113.435 57.3155 113.508 57.2169 113.558C57.1183 113.609 57.0091 113.635 56.8983 113.635H56.898Z" fill="white" />
  <path d="M55.1149 128.282C50.3506 128.282 46.7179 125.111 46.536 124.95C46.4673 124.889 46.4112 124.815 46.3711 124.732C46.3309 124.649 46.3075 124.56 46.302 124.468C46.2966 124.376 46.3092 124.284 46.3393 124.197C46.3694 124.11 46.4163 124.03 46.4774 123.962C46.5384 123.893 46.6124 123.837 46.6951 123.797C46.7778 123.757 46.8676 123.733 46.9593 123.728C47.0511 123.722 47.143 123.735 47.2299 123.765C47.3168 123.795 47.3969 123.842 47.4656 123.903C47.5134 123.945 52.3106 128.115 57.7118 126.505C63.0878 124.903 64.5622 118.077 64.5766 118.008C64.6158 117.828 64.7244 117.671 64.8789 117.57C65.0334 117.47 65.2212 117.434 65.4017 117.471C65.5821 117.509 65.7407 117.615 65.8429 117.769C65.9451 117.922 65.9828 118.109 65.9477 118.29C65.6149 119.704 65.0936 121.067 64.3978 122.342C62.8609 125.175 60.6878 127.079 58.1118 127.846C57.1393 128.136 56.1297 128.283 55.1149 128.282Z" fill="white" />
  <path d="M206.011 97.1231C205.951 98.643 205.796 100.158 205.548 101.658C202.173 122.302 182.712 136.296 162.068 132.92C141.432 129.547 127.43 110.084 130.806 89.4399C131.021 88.1239 131.305 86.8359 131.641 85.5798C116.331 75.182 117.225 55.1316 120.16 52.9087C123.124 50.6577 126.36 52.5545 126.022 58.781C125.674 67.8231 131.241 75.301 134.329 78.5581C141.558 64.1461 157.535 55.4392 174.286 58.1776C190.543 60.8349 202.67 73.4726 205.447 88.7995C208.478 87.6978 213.829 84.5186 218.165 75.4813C218.77 73.6802 218.938 72.3562 218.97 71.5588C218.992 70.8139 219.283 70.102 219.789 69.5551C220.737 68.5635 222.416 67.5111 224.584 69.127C225.078 69.4957 225.475 69.9772 225.744 70.5313C226.012 71.0854 226.144 71.6958 226.128 72.3113C225.992 77.1955 222.084 89.0789 206.011 97.1231Z" fill="#73B473" />
  <path d="M183.489 103.817C182.533 109.664 174.491 113.214 165.533 111.75C156.567 110.284 150.075 104.358 151.031 98.511C151.213 97.4222 151.638 96.3885 152.275 95.487C152.45 95.243 152.711 95.075 153.005 95.0177C153.299 94.9604 153.604 95.0181 153.857 95.179C157.067 97.1884 162.147 98.9604 168.008 99.9186C173.402 100.801 178.394 100.814 182.027 100.125C182.323 100.068 182.629 100.127 182.882 100.29C183.136 100.453 183.317 100.707 183.388 101C183.606 101.923 183.641 102.88 183.489 103.817Z" fill="white" />
  <path d="M166.492 92.2153C166.39 92.2155 166.29 92.1935 166.198 92.151C166.105 92.1084 166.024 92.0463 165.958 91.969C165.892 91.8916 165.844 91.8009 165.817 91.703C165.789 91.6052 165.784 91.5026 165.8 91.4024C166.035 89.965 165.689 88.4932 164.839 87.3107C163.989 86.1283 162.704 85.332 161.266 85.097C159.829 84.8621 158.357 85.2077 157.175 86.058C155.992 86.9082 155.196 88.1933 154.961 89.6307C154.931 89.8139 154.83 89.9777 154.679 90.0861C154.528 90.1944 154.341 90.2385 154.157 90.2085C153.974 90.1785 153.81 90.077 153.702 89.9263C153.594 89.7755 153.55 89.5879 153.579 89.4047C153.874 87.6009 154.874 85.9882 156.358 84.9212C157.842 83.8542 159.689 83.4204 161.492 83.7153C163.296 84.0101 164.909 85.0095 165.976 86.4934C167.043 87.9774 167.477 89.8244 167.182 91.6282C167.155 91.7919 167.071 91.9409 166.945 92.0484C166.818 92.156 166.658 92.2151 166.492 92.2153Z" fill="white" />
  <path d="M183.285 94.9598C183.183 94.9597 183.083 94.9375 182.991 94.8949C182.899 94.8523 182.817 94.7901 182.751 94.7128C182.686 94.6355 182.637 94.5449 182.61 94.4471C182.583 94.3493 182.577 94.2468 182.593 94.1466C182.822 92.7119 182.474 91.2449 181.623 90.0668C180.773 88.8887 179.49 88.0957 178.056 87.8613C176.623 87.6269 175.154 87.9703 173.973 88.8163C172.792 89.6623 171.994 90.9419 171.754 92.3749C171.74 92.4659 171.708 92.5531 171.659 92.6315C171.611 92.7099 171.548 92.7781 171.473 92.832C171.398 92.8859 171.314 92.9245 171.224 92.9456C171.134 92.9667 171.041 92.97 170.95 92.9551C170.859 92.9403 170.772 92.9076 170.694 92.859C170.616 92.8104 170.548 92.7469 170.494 92.672C170.441 92.5971 170.402 92.5124 170.381 92.4227C170.361 92.3329 170.358 92.24 170.373 92.1491C170.673 90.3499 171.674 88.743 173.156 87.6805C174.639 86.6181 176.482 86.1867 178.282 86.4809C180.082 86.7752 181.692 87.7711 182.759 89.2503C183.826 90.7296 184.264 92.5716 183.975 94.3726C183.948 94.5364 183.864 94.6853 183.738 94.7929C183.611 94.9004 183.451 94.9596 183.285 94.9598Z" fill="white" />
</svg>
